<?xml version="1.0" standalone="no"?>
<!DOCTYPE svg PUBLIC "-//W3C//DTD SVG 20010904//EN"
 "http://www.w3.org/TR/2001/REC-SVG-20010904/DTD/svg10.dtd">
<svg version="1.0" xmlns="http://www.w3.org/2000/svg"
 width="486.000000pt" height="560.000000pt" viewBox="0 0 486.000000 560.000000"
 preserveAspectRatio="xMidYMid meet">

<g transform="translate(0.000000,560.000000) scale(0.100000,-0.100000)"
fill="#000000" stroke="none">
<path d="M2613 5275 c-17 -18 -19 -1505 -3 -1505 6 0 10 -7 10 -15 0 -10 10
-15 30 -15 20 0 30 5 30 15 0 8 7 15 15 15 13 0 15 90 15 750 0 660 -2 750
-15 750 -8 0 -15 5 -15 10 0 15 -53 11 -67 -5z"/>
<path d="M1533 3385 c-24 -27 -8 -95 22 -95 7 0 95 -88 95 -95 0 -8 27 -35 35
-35 4 0 13 -7 21 -15 14 -13 14 -17 0 -30 -8 -8 -17 -15 -21 -15 -8 0 -55 -47
-55 -55 0 -7 -68 -75 -75 -75 -7 0 -75 -68 -75 -75 0 -7 -68 -75 -75 -75 -8 0
-55 -47 -55 -55 0 -7 -88 -95 -95 -95 -10 0 -55 -49 -55 -60 0 -5 -9 -10 -20
-10 -11 0 -20 5 -20 10 0 11 -45 60 -55 60 -7 0 -95 88 -95 95 0 10 -28 35
-39 35 -6 0 -11 7 -11 16 0 40 -75 61 -106 30 -16 -17 -19 -66 -4 -66 6 0 10
-11 10 -25 0 -14 -4 -25 -10 -25 -6 0 -10 -35 -10 -85 0 -69 -3 -85 -15 -85
-12 0 -15 -16 -15 -85 0 -50 -4 -85 -10 -85 -16 0 -12 -119 4 -136 21 -21 621
-21 642 0 16 17 19 66 4 66 -5 0 -10 5 -10 11 0 11 -25 39 -35 39 -9 0 -95 88
-95 98 0 4 -9 14 -20 22 -29 21 -25 37 20 80 22 21 40 41 40 45 0 7 47 55 55
55 7 0 95 88 95 95 0 8 47 55 55 55 7 0 75 68 75 75 0 8 47 55 55 55 10 0 95
89 95 100 0 5 5 10 10 10 6 0 10 -9 10 -21 0 -19 21 -49 35 -49 7 0 95 -88 95
-95 0 -8 47 -55 55 -55 3 0 21 -16 40 -35 19 -19 35 -37 35 -40 0 -8 47 -55
55 -55 4 0 13 -7 21 -15 14 -13 14 -17 0 -30 -8 -8 -17 -15 -21 -15 -8 0 -35
-27 -35 -35 0 -12 -50 -55 -65 -55 -8 0 -15 -4 -15 -10 0 -5 -5 -10 -10 -10
-11 0 -80 -65 -80 -75 0 -13 -71 -75 -85 -75 -24 0 -45 -25 -45 -55 0 -22 38
-75 55 -75 10 0 75 -69 75 -80 0 -5 5 -10 10 -10 22 0 8 -34 -30 -70 -22 -21
-40 -43 -40 -49 0 -6 -6 -11 -13 -11 -7 0 -19 -9 -27 -20 -8 -11 -21 -20 -28
-20 -7 0 -31 -18 -52 -40 -21 -22 -43 -40 -49 -40 -6 0 -11 -5 -11 -10 0 -6
-16 -27 -36 -46 l-35 -36 -18 21 c-10 12 -23 21 -30 21 -6 0 -11 5 -11 10 0 6
-9 10 -20 10 -15 0 -20 7 -20 25 0 14 -4 25 -10 25 -5 0 -10 7 -10 15 0 9 -16
31 -35 50 -49 49 -75 46 -135 -15 -27 -27 -53 -50 -59 -50 -6 0 -11 -9 -11
-21 0 -11 -25 -45 -60 -79 -43 -42 -60 -66 -60 -85 0 -32 21 -55 50 -55 22 0
70 41 70 60 0 5 5 10 10 10 15 0 80 67 80 82 0 8 9 20 20 28 11 8 20 20 20 27
0 7 5 13 10 13 6 0 10 -7 10 -15 0 -8 5 -15 10 -15 15 0 60 -46 60 -61 0 -6
14 -24 30 -39 17 -15 30 -31 30 -35 0 -10 27 -35 39 -35 6 0 11 -4 11 -10 0
-5 11 -10 25 -10 26 0 75 39 75 60 0 5 5 10 11 10 6 0 32 23 59 50 27 28 56
50 64 50 9 0 16 5 16 10 0 6 7 10 15 10 8 0 15 5 15 10 0 13 127 140 140 140
5 0 10 5 10 11 0 14 26 39 40 39 22 0 40 29 40 65 0 37 -18 65 -42 65 -8 0
-20 9 -28 20 -8 11 -18 20 -23 20 -14 0 -57 49 -57 65 0 16 43 65 57 65 5 0
15 9 23 20 8 11 20 20 28 20 14 0 42 23 42 35 0 8 27 35 35 35 3 0 29 23 56
51 l50 51 18 -21 c10 -12 21 -21 25 -21 14 0 76 -70 76 -85 0 -15 62 -85 75
-85 8 0 55 -47 55 -55 0 -7 88 -95 95 -95 4 0 13 -6 21 -14 17 -17 21 -266 4
-266 -6 0 -10 -103 -10 -290 0 -251 -2 -290 -15 -290 -13 0 -15 -39 -15 -290
0 -187 -4 -290 -10 -290 -6 0 -10 -60 -10 -160 0 -100 4 -160 10 -160 6 0 10
-7 10 -15 0 -10 11 -15 35 -15 24 0 35 5 35 15 0 8 5 15 10 15 6 0 10 60 10
160 0 100 4 160 10 160 6 0 10 103 10 290 0 187 4 290 10 290 6 0 10 103 10
290 0 251 2 290 15 290 13 0 15 24 15 160 0 136 -2 160 -15 160 -8 0 -15 5
-15 10 0 6 -7 10 -16 10 -15 0 -44 23 -44 35 0 8 -47 55 -55 55 -8 0 -75 68
-75 76 0 3 -13 19 -30 34 -17 15 -30 35 -30 44 0 9 -5 16 -10 16 -12 0 -60 45
-60 56 0 3 -13 19 -30 34 -16 15 -30 38 -30 50 0 30 -23 50 -59 50 -17 0 -31
5 -31 10 0 11 -85 100 -95 100 -8 0 -35 27 -35 35 0 7 -88 95 -95 95 -9 0 -55
48 -55 57 0 5 -9 15 -20 23 -11 8 -20 20 -20 28 0 13 -44 62 -55 62 -8 0 -35
27 -35 35 0 10 -109 115 -120 115 -5 0 -10 5 -10 10 0 6 -16 26 -35 45 -37 38
-80 46 -102 20z m-573 -725 c0 -5 5 -10 11 -10 11 0 39 -25 39 -35 0 -7 88
-95 95 -95 8 0 55 -47 55 -55 0 -10 89 -95 100 -95 5 0 10 -4 10 -10 0 -6 -68
-10 -185 -10 -178 0 -185 1 -185 20 0 11 5 20 10 20 6 0 10 35 10 85 0 50 4
85 10 85 6 0 10 25 10 55 0 30 5 55 10 55 6 0 10 -4 10 -10z"/>
</g>
</svg>
